<svg xmlns="http://www.w3.org/2000/svg" width="20" height="25" viewBox="0 0 20 25">
    <g fill="none" fill-rule="evenodd">
        <g fill="#656565" fill-rule="nonzero">
            <g>
                <path d="M14.5 9c-.276 0-.5.257-.5.574v10.852c0 .317.224.574.5.574s.5-.257.5-.574V9.574c0-.317-.224-.574-.5-.574zM5.5 9c-.276 0-.5.257-.5.574v10.852c0 .317.224.574.5.574s.5-.257.5-.574V9.574C6 9.257 5.776 9 5.5 9z" transform="translate(-1310 -567) translate(1310 567)"/>
                <path d="M1.638 7.443v14.425c0 .852.308 1.653.846 2.227.535.577 1.28.904 2.06.905h10.912c.78-.001 1.525-.328 2.06-.905.538-.574.846-1.375.846-2.227V7.443c1.07-.288 1.762-1.337 1.62-2.451-.144-1.114-1.079-1.947-2.185-1.947h-2.953v-.732c.004-.616-.236-1.207-.665-1.641-.43-.435-1.012-.677-1.619-.672H7.44C6.833-.005 6.25.237 5.82.672c-.429.434-.669 1.025-.665 1.64v.733H2.203c-1.106 0-2.041.833-2.184 1.947-.143 1.114.55 2.163 1.619 2.45zm13.818 16.386H4.544c-.986 0-1.753-.86-1.753-1.961V7.494H17.21v14.374c0 1.101-.767 1.961-1.753 1.961zM6.309 2.313c-.004-.305.114-.598.327-.814.213-.215.503-.333.804-.328h5.12c.301-.005.59.113.804.328.213.215.33.509.327.814v.732H6.309v-.732zM2.203 4.216h15.594c.573 0 1.038.471 1.038 1.053s-.465 1.054-1.038 1.054H2.203c-.573 0-1.038-.472-1.038-1.054 0-.582.465-1.053 1.038-1.053z" transform="translate(-1310 -567) translate(1310 567)"/>
                <path d="M10.5 9c-.276 0-.5.257-.5.574v10.852c0 .317.224.574.5.574s.5-.257.5-.574V9.574c0-.317-.224-.574-.5-.574z" transform="translate(-1310 -567) translate(1310 567)"/>
            </g>
        </g>
    </g>
</svg>
