<svg xmlns="http://www.w3.org/2000/svg" width="23" height="23" viewBox="0 0 23 23">
    <g fill="none" fill-rule="evenodd">
        <g fill="#656565" fill-rule="nonzero">
            <g>
                <path d="M21.422 14.335c-.32 0-.578.26-.578.582v5.17c-.001.965-.777 1.747-1.734 1.748H2.89c-.957 0-1.733-.783-1.734-1.747V4.912c.001-.964.777-1.746 1.734-1.747h5.133c.319 0 .578-.261.578-.583C8.6 2.261 8.342 2 8.023 2H2.89C1.295 2.002.002 3.304 0 4.912v15.176c.002 1.608 1.295 2.91 2.89 2.912h16.22c1.595-.002 2.888-1.304 2.89-2.912v-5.17c0-.323-.259-.583-.578-.583z" transform="translate(-1236 -569) translate(1236 569)"/>
                <path d="M21.557.764c-1.018-1.019-2.67-1.019-3.688 0L7.529 11.102c-.07.071-.121.159-.148.255l-1.36 4.909c-.056.2.001.416.149.564.147.148.363.205.564.149l4.909-1.36c.096-.026.184-.078.255-.149l10.34-10.338c1.016-1.02 1.016-2.67 0-3.688l-.68-.68zM8.792 11.479l8.462-8.462 2.73 2.73-8.463 8.46-2.729-2.728zm-.545 1.094l2.18 2.18-3.015.836.835-3.016zm13.17-8.26l-.614.614-2.73-2.73.616-.614c.565-.565 1.483-.565 2.049 0l.68.68c.565.567.565 1.483 0 2.05z" transform="translate(-1236 -569) translate(1236 569)"/>
            </g>
        </g>
    </g>
</svg>
