<svg xmlns="http://www.w3.org/2000/svg" width="20" height="19" viewBox="0 0 20 19">
    <g fill="none" fill-rule="evenodd">
        <g fill="#FFF" fill-rule="nonzero">
            <g>
                <path d="M8.148 19c-.41 0-.741-.334-.741-.745V11.09L.539 3.495C-.013 2.882-.155 2 .178 1.245.51.487 1.255 0 2.077 0h15.846c.822 0 1.567.488 1.9 1.244.332.756.19 1.638-.362 2.25l-6.868 7.597v4.184c0 .226-.102.44-.278.58l-3.704 2.981c-.131.106-.295.164-.463.164zM2.077 1.49c-.236 0-.45.14-.544.357-.096.217-.055.47.103.645l7.06 7.824c.121.134.19.307.193.488v5.901l2.222-1.803v-4.098c0-.186.069-.365.193-.503l7.06-7.824c.149-.176.183-.422.09-.633-.095-.21-.3-.348-.53-.354H2.076z" transform="translate(-379 -142) translate(379 142)"/>
            </g>
        </g>
    </g>
</svg>
