<svg xmlns="http://www.w3.org/2000/svg" width="107" height="34" viewBox="0 0 107 34">
    <g fill="none" fill-rule="evenodd">
        <g fill="#1D1FFF" fill-rule="nonzero">
            <g>
                <path d="M35.719 47c.347 0 .52-.16.52-.48v-2.04c0-.32-.173-.48-.52-.48h-3.08V21.28h3.08c.347 0 .52-.16.52-.48v-2.04c0-.32-.173-.48-.52-.48h-9.6c-.347 0-.52.16-.52.48v2.04c0 .32.173.48.52.48h3.04V44h-3.04c-.347 0-.52.16-.52.48v2.04c0 .32.173.48.52.48h9.6zm15.32 0c.32 0 .48-.16.48-.48v-2.04c0-.32-.16-.48-.48-.48h-3.92v-7.84h5.36c3.2 0 5.68-.767 7.44-2.3 1.76-1.533 2.64-3.693 2.64-6.48 0-2.787-.9-5-2.7-6.64-1.8-1.64-4.113-2.46-6.94-2.46h-12.32c-.347 0-.52.16-.52.48v2.04c0 .32.173.48.52.48h3.04V44h-3.04c-.347 0-.52.16-.52.48v2.04c0 .32.173.48.52.48h10.44zm1.28-13.68h-5.2V21.28h5.24c1.92 0 3.513.507 4.78 1.52 1.267 1.013 1.9 2.547 1.9 4.6 0 3.947-2.24 5.92-6.72 5.92zM69.807 47c.252 0 .402-.126.45-.378l1.53-6.03h.036l1.53 6.03c.036.252.18.378.432.378h1.062c.192 0 .336-.126.432-.378l2.376-7.272h.99c.144 0 .216-.072.216-.216v-.774c0-.144-.072-.216-.216-.216h-3.348c-.156 0-.234.072-.234.216v.774c0 .144.078.216.234.216h.81l-1.8 6.066h-.036l-1.584-6.066h.702c.144 0 .216-.072.216-.216v-.774c0-.144-.072-.216-.216-.216h-3.168c-.144 0-.216.072-.216.216v.774c0 .144.072.216.216.216h.702l-1.584 6.066h-.036l-1.818-6.066h.828c.144 0 .216-.072.216-.216v-.774c0-.144-.072-.216-.216-.216h-3.366c-.144 0-.216.072-.216.216v.774c0 .144.072.216.216.216h1.008l2.376 7.272c.072.252.216.378.432.378h1.044zm14.4.126c.552 0 1.071-.078 1.557-.234.486-.156.882-.348 1.188-.576.306-.228.543-.432.711-.612.168-.18.279-.312.333-.396.054-.084.081-.153.081-.207 0-.054-.036-.117-.108-.189l-.486-.486c-.12-.084-.228-.066-.324.054-.18.3-.531.606-1.053.918-.522.312-1.149.468-1.881.468s-1.389-.27-1.971-.81c-.582-.54-.897-1.308-.945-2.304h6.48c.168 0 .252-.078.252-.234v-.144c0-1.332-.348-2.391-1.044-3.177-.696-.786-1.653-1.179-2.871-1.179s-2.247.405-3.087 1.215c-.84.81-1.26 1.914-1.26 3.312s.423 2.511 1.269 3.339c.846.828 1.899 1.242 3.159 1.242zm2.34-5.472h-5.202c.096-.816.402-1.428.918-1.836.516-.408 1.134-.612 1.854-.612.72 0 1.296.222 1.728.666.432.444.666 1.038.702 1.782zm8.514 5.472c1.2 0 2.175-.42 2.925-1.26.75-.84 1.125-1.941 1.125-3.303 0-1.362-.369-2.46-1.107-3.294-.738-.834-1.713-1.251-2.925-1.251-.744 0-1.368.171-1.872.513-.504.342-.858.759-1.062 1.251h-.054l.054-.702v-4.788c0-.144-.078-.216-.234-.216h-2.214c-.156 0-.234.072-.234.216v.774c0 .144.078.216.234.216h1.008v11.502c0 .144.072.216.216.216h.918c.156 0 .234-.072.234-.216v-1.476h.018c.216.504.576.933 1.08 1.287.504.354 1.134.531 1.89.531zm-.18-1.26c-.804 0-1.467-.303-1.989-.909-.522-.606-.783-1.407-.783-2.403 0-1.008.264-1.806.792-2.394.528-.588 1.185-.882 1.971-.882s1.443.297 1.971.891c.528.594.792 1.386.792 2.376s-.258 1.791-.774 2.403c-.516.612-1.176.918-1.98.918zm8.568 1.278c1.464 0 2.634-.606 3.51-1.818h.036v.918c0 .504.258.756.774.756h1.566c.144 0 .216-.072.216-.216v-.774c0-.144-.072-.216-.216-.216h-1.008v-4.176c0-2.4-1.26-3.6-3.78-3.6-.864 0-1.614.126-2.25.378-.636.252-1.056.51-1.26.774-.108.096-.12.192-.036.288l.504.63c.084.12.216.108.396-.036.072-.048.177-.114.315-.198s.369-.195.693-.333c.324-.138.852-.207 1.584-.207 1.56 0 2.34.75 2.34 2.25v.216h-1.512c-1.5 0-2.679.231-3.537.693-.858.462-1.287 1.185-1.287 2.169 0 .768.276 1.377.828 1.827.552.45 1.26.675 2.124.675zm.45-1.278c-.552 0-.999-.135-1.341-.405-.342-.27-.513-.615-.513-1.035 0-.42.159-.75.477-.99.318-.24.705-.396 1.161-.468.456-.072 1.032-.108 1.728-.108h1.422v1.458c-.792 1.032-1.77 1.548-2.934 1.548zm10.89 5.184c.156 0 .234-.072.234-.216v-.774c0-.144-.078-.216-.234-.216h-1.17V46.19c0-.168-.018-.444-.054-.828h.054c.216.492.573.909 1.071 1.251.498.342 1.119.513 1.863.513 1.224 0 2.202-.426 2.934-1.278.732-.852 1.098-1.959 1.098-3.321s-.372-2.454-1.116-3.276c-.744-.822-1.722-1.233-2.934-1.233-.744 0-1.371.171-1.881.513-.51.342-.879.759-1.107 1.251h-.018l.018-1.422c0-.144-.078-.216-.234-.216h-2.106c-.156 0-.234.072-.234.216v.774c0 .144.078.216.234.216h.972v10.494h-1.008c-.156 0-.234.072-.234.216v.774c0 .144.078.216.234.216h3.618zm1.593-5.184c-.774 0-1.434-.282-1.98-.846-.546-.564-.819-1.368-.819-2.412 0-1.044.27-1.86.81-2.448.54-.588 1.2-.882 1.98-.882s1.431.3 1.953.9c.522.6.783 1.395.783 2.385 0 .99-.261 1.788-.783 2.394-.522.606-1.17.909-1.944.909zm9.441 5.184c.156 0 .234-.072.234-.216v-.774c0-.144-.078-.216-.234-.216h-1.17V46.19c0-.168-.018-.444-.054-.828h.054c.216.492.573.909 1.071 1.251.498.342 1.119.513 1.863.513 1.224 0 2.202-.426 2.934-1.278.732-.852 1.098-1.959 1.098-3.321s-.372-2.454-1.116-3.276c-.744-.822-1.722-1.233-2.934-1.233-.744 0-1.371.171-1.881.513-.51.342-.879.759-1.107 1.251h-.018l.018-1.422c0-.144-.078-.216-.234-.216h-2.106c-.156 0-.234.072-.234.216v.774c0 .144.078.216.234.216h.972v10.494h-1.008c-.156 0-.234.072-.234.216v.774c0 .144.078.216.234.216h3.618zm1.593-5.184c-.774 0-1.434-.282-1.98-.846-.546-.564-.819-1.368-.819-2.412 0-1.044.27-1.86.81-2.448.54-.588 1.2-.882 1.98-.882s1.431.3 1.953.9c.522.6.783 1.395.783 2.385 0 .99-.261 1.788-.783 2.394-.522.606-1.17.909-1.944.909z" transform="translate(-25.000000, -18.000000)"/>
            </g>
        </g>
    </g>
</svg>
