<?xml version="1.0" standalone="no"?>
<!DOCTYPE svg PUBLIC "-//W3C//DTD SVG 20010904//EN"
 "http://www.w3.org/TR/2001/REC-SVG-20010904/DTD/svg10.dtd">
<svg version="1.0" xmlns="http://www.w3.org/2000/svg"
 width="6205.000000pt" height="1852.000000pt" viewBox="0 0 6205.000000 1852.000000"
 preserveAspectRatio="xMidYMid meet">

<g transform="translate(0.000000,1852.000000) scale(0.100000,-0.100000)"
fill="#000000" stroke="none">
<path d="M7935 13119 c-1618 -76 -3204 -427 -4450 -984 -193 -86 -447 -215
-443 -226 9 -24 221 -253 413 -444 668 -669 1407 -1162 2292 -1531 1164 -484
2531 -743 4483 -849 600 -32 1001 -46 2135 -75 1838 -47 2866 -104 3865 -216
538 -60 1115 -158 1285 -220 42 -15 -7 17 -255 168 -297 180 -576 343 -780
455 -1641 903 -3438 1430 -5480 1608 -424 37 -684 49 -1675 75 -1365 37 -2418
142 -3032 301 -347 90 -572 207 -617 320 -20 49 -15 59 15 30 111 -104 764
-155 1674 -132 491 13 845 29 1465 66 664 40 889 48 1430 48 535 0 814 -10
1255 -44 1835 -141 3351 -607 4730 -1454 455 -279 844 -566 1240 -914 167
-147 587 -563 770 -762 707 -773 1385 -1709 1943 -2685 l41 -70 320 -101 c176
-55 317 -95 314 -89 -23 38 -332 498 -461 686 -1358 1971 -2685 3442 -4084
4526 -1040 807 -2114 1403 -3274 1817 -1151 411 -2342 630 -3794 697 -248 11
-1074 11 -1325 -1z"/>
<path d="M25970 12994 c-462 -41 -791 -114 -1135 -251 -701 -279 -1241 -767
-1591 -1438 -357 -684 -502 -1522 -433 -2500 72 -1029 393 -1831 958 -2396
222 -222 433 -374 711 -513 533 -266 1146 -377 1921 -347 618 25 1123 108
1529 253 l65 23 3 368 c1 209 -2 367 -7 367 -5 0 -96 -22 -202 -50 -960 -246
-1747 -282 -2364 -109 -942 265 -1545 1057 -1689 2219 -37 292 -48 746 -26
1026 65 830 329 1466 803 1937 178 176 378 316 607 426 725 346 1743 314 2660
-83 l145 -63 178 360 c97 198 176 361 175 362 -31 26 -303 136 -480 194 -304
99 -581 157 -953 197 -133 15 -766 27 -875 18z"/>
<path d="M42415 12989 c-1078 -81 -1966 -498 -2546 -1195 -443 -532 -718
-1237 -793 -2034 -52 -540 -17 -1141 95 -1655 281 -1280 1113 -2156 2323
-2445 403 -96 803 -129 1364 -111 808 27 1390 117 2082 323 l145 43 3 1763 2
1762 -1235 0 -1235 0 0 -375 0 -375 810 0 810 0 0 -1118 0 -1118 -129 -28
c-632 -136 -1337 -178 -1880 -111 -359 45 -668 133 -945 271 -685 341 -1109
953 -1270 1834 -52 287 -61 405 -61 835 0 447 9 554 70 860 185 928 728 1610
1535 1928 546 216 1259 264 1975 132 293 -54 695 -173 993 -293 l123 -49 13
31 c7 17 79 181 160 365 81 183 145 338 143 344 -4 14 -189 86 -404 156 -423
140 -878 227 -1353 261 -168 11 -634 11 -795 -1z"/>
<path d="M49273 12913 c-4 -10 -649 -1649 -1434 -3643 l-1427 -3625 416 -3
c229 -1 422 0 427 2 6 2 210 522 455 1155 l445 1151 1456 0 1455 0 451 -1152
451 -1153 437 -3 c414 -2 437 -1 431 15 -11 29 -2764 7058 -2809 7171 l-40
102 -354 0 c-328 0 -354 -1 -360 -17z m407 -1108 c106 -367 221 -690 665
-1875 250 -667 455 -1215 455 -1217 0 -1 -527 -3 -1171 -3 -1111 0 -1171 1
-1167 18 3 9 197 521 430 1137 234 616 444 1174 467 1240 65 184 157 489 207
684 50 196 53 206 58 200 2 -2 27 -85 56 -184z"/>
<path d="M30160 9270 l0 -3630 2023 2 2022 3 0 380 0 380 -1597 3 -1598 2 0
3245 0 3245 -425 0 -425 0 0 -3630z"/>
<path d="M36020 9270 l0 -3630 420 0 420 0 0 3630 0 3630 -420 0 -420 0 0
-3630z"/>
<path d="M54420 9270 l0 -3630 2020 0 2020 0 0 385 0 385 -1600 0 -1600 0 0
3245 0 3245 -420 0 -420 0 0 -3630z"/>
</g>
</svg>
