<svg xmlns="http://www.w3.org/2000/svg" width="31" height="31" viewBox="0 0 31 31">
    <g fill="none" fill-rule="evenodd">
        <g fill="#FFF" fill-rule="nonzero">
            <g>
                <path d="M16.947 31h-2.894c-.977 0-1.803-.732-1.92-1.705l-.308-2.423c-.616-.2-1.21-.447-1.775-.735l-1.93 1.5c-.782.605-1.884.536-2.563-.163l-2.035-2.035c-.693-.673-.763-1.774-.157-2.556l1.5-1.93c-.29-.565-.537-1.16-.736-1.776l-2.428-.308C.732 18.749 0 17.924 0 16.947v-2.894c0-.977.732-1.803 1.705-1.92l2.423-.308c.2-.616.447-1.21.735-1.775L3.365 8.12c-.607-.782-.536-1.885.164-2.565l2.034-2.034c.673-.694 1.776-.762 2.556-.157l1.93 1.5c.565-.288 1.159-.534 1.776-.735l.309-2.428C12.25.732 13.076 0 14.054 0h2.893c.977 0 1.803.732 1.92 1.705l.308 2.423c.617.2 1.211.447 1.776.735l1.93-1.5c.784-.605 1.884-.536 2.564.165l2.034 2.034c.694.673.763 1.775.158 2.556l-1.5 1.931c.29.565.536 1.159.735 1.775l2.428.309c.968.117 1.7.943 1.7 1.92v2.894c0 .977-.732 1.803-1.705 1.92l-2.423.308c-.2.616-.447 1.21-.735 1.775l1.5 1.93c.607.782.536 1.884-.165 2.563l-2.034 2.035c-.673.693-1.776.764-2.556.157l-1.931-1.5c-.565.29-1.159.537-1.775.736l-.309 2.428c-.117.969-.943 1.701-1.92 1.701zm-6.962-6.277c.107 0 .217.027.315.08.711.399 1.483.719 2.291.952.248.07.43.282.463.538l.361 2.842c.039.324.32.573.638.573h2.894c.319 0 .599-.249.636-.567l.363-2.847c.033-.255.215-.467.463-.538.808-.233 1.58-.553 2.291-.95.226-.127.508-.105.71.053l2.261 1.757c.26.202.624.185.846-.044l2.047-2.047c.234-.227.252-.592.05-.853l-1.756-2.26c-.159-.204-.18-.484-.054-.71.398-.712.718-1.483.95-2.292.072-.248.283-.43.54-.462l2.84-.362c.325-.04.574-.32.574-.64v-2.893c0-.319-.249-.599-.567-.636l-2.847-.363c-.255-.033-.467-.215-.538-.463-.233-.808-.553-1.58-.95-2.291-.127-.226-.107-.507.053-.71l1.757-2.261c.203-.261.185-.625-.043-.845l-2.047-2.047c-.226-.235-.591-.253-.852-.05l-2.26 1.756c-.206.159-.486.181-.712.054-.71-.397-1.48-.716-2.292-.95-.248-.071-.43-.283-.462-.539l-.362-2.842c-.04-.325-.32-.574-.64-.574h-2.893c-.319 0-.599.249-.636.567l-.363 2.847c-.033.255-.215.467-.463.54-.811.232-1.582.552-2.291.949-.226.128-.507.104-.712-.053l-2.26-1.757c-.261-.203-.624-.184-.845.043L4.436 6.476c-.234.228-.252.592-.05.853l1.756 2.26c.159.204.18.485.054.71-.399.712-.718 1.484-.95 2.292-.072.248-.283.43-.54.463l-2.84.361c-.325.039-.574.32-.574.638v2.894c0 .319.249.599.567.636l2.847.363c.255.033.467.215.538.463.233.808.553 1.58.95 2.291.127.226.107.507-.053.71l-1.757 2.261c-.203.261-.185.625.043.845l2.047 2.047c.226.234.589.252.852.05l2.26-1.756c.118-.088.258-.134.399-.134z" transform="translate(-1310.000000, -22.000000) translate(1310.000000, 22.000000)"/>
                <path d="M15.5 22C11.916 22 9 19.084 9 15.5S11.916 9 15.5 9s6.5 2.916 6.5 6.5-2.916 6.5-6.5 6.5zm0-11.7c-2.868 0-5.2 2.332-5.2 5.2 0 2.868 2.332 5.2 5.2 5.2 2.868 0 5.2-2.332 5.2-5.2 0-2.868-2.332-5.2-5.2-5.2z" transform="translate(-1310.000000, -22.000000) translate(1310.000000, 22.000000)"/>
            </g>
        </g>
    </g>
</svg>
