<svg xmlns="http://www.w3.org/2000/svg" width="31" height="31" viewBox="0 0 31 31">
    <g fill="none" fill-rule="evenodd">
        <g fill="#FFF" fill-rule="nonzero">
            <g>
                <path d="M26.46 4.54C23.533 1.612 19.64 0 15.5 0 11.36 0 7.467 1.612 4.54 4.54 1.612 7.467 0 11.36 0 15.5c0 4.14 1.612 8.033 4.54 10.96C7.467 29.388 11.36 31 15.5 31c4.14 0 8.033-1.612 10.96-4.54C29.388 23.533 31 19.64 31 15.5c0-4.14-1.612-8.033-4.54-10.96zM6.727 25.993c.512-4.404 4.298-7.804 8.773-7.804 2.359 0 4.577.919 6.246 2.587 1.41 1.41 2.298 3.25 2.527 5.216-2.377 1.991-5.437 3.192-8.773 3.192-3.336 0-6.396-1.2-8.773-3.191zm8.773-9.675c-2.596 0-4.708-2.112-4.708-4.708s2.112-4.708 4.708-4.708 4.708 2.112 4.708 4.708-2.112 4.708-4.708 4.708zm10.336 8.139c-.462-1.866-1.428-3.587-2.806-4.965-1.116-1.116-2.437-1.954-3.877-2.479 1.731-1.174 2.871-3.158 2.871-5.403 0-3.597-2.927-6.524-6.524-6.524S8.976 8.013 8.976 11.61c0 2.246 1.14 4.23 2.874 5.405-1.325.483-2.552 1.23-3.607 2.212-1.528 1.423-2.589 3.238-3.08 5.228-2.084-2.401-3.347-5.533-3.347-8.955 0-7.545 6.139-13.684 13.684-13.684 7.545 0 13.684 6.139 13.684 13.684 0 3.422-1.263 6.555-3.348 8.957z" transform="translate(-1380 -22) translate(1380 22)"/>
            </g>
        </g>
    </g>
</svg>
